<svg width="8" height="8" viewBox="0 0 8 8" fill="none" xmlns="http://www.w3.org/2000/svg">
<path d="M5.06011 3.99998L7.36011 1.69998C7.65011 1.40998 7.65011 0.929985 7.36011 0.639985C7.07011 0.349985 6.59011 0.349985 6.30011 0.639985L4.00011 2.93998L1.70011 0.639985C1.41011 0.349985 0.930107 0.349985 0.640107 0.639985C0.350107 0.929985 0.350107 1.40998 0.640107 1.69998L2.94011 3.99998L0.640107 6.29999C0.350107 6.58999 0.350107 7.06998 0.640107 7.35998C0.790107 7.50998 0.980107 7.57999 1.17011 7.57999C1.36011 7.57999 1.55011 7.50998 1.70011 7.35998L4.00011 5.05999L6.30011 7.35998C6.45011 7.50998 6.64011 7.57999 6.83011 7.57999C7.02011 7.57999 7.21011 7.50998 7.36011 7.35998C7.65011 7.06998 7.65011 6.58999 7.36011 6.29999L5.06011 3.99998Z" fill="#292D32"/>
</svg>
